REM MD5 2053e38785bb282184323c3f06d0f2c9
FILE "Famitsu Wave 11gatsu-gou Vol. 4 (Japan).bin" BINARY
  TRACK 01 MODE2/2352
    INDEX 01 00:00:00
  TRACK 02 AUDIO
    INDEX 00 46:43:47
    INDEX 01 46:45:47
  TRACK 03 AUDIO
    INDEX 00 47:45:48
    INDEX 01 47:47:48
  TRACK 04 AUDIO
    INDEX 00 48:27:49
    INDEX 01 48:29:49
  TRACK 05 AUDIO
    INDEX 00 50:05:12
    INDEX 01 50:07:12
REM LEADOUT 53:15:12
